<?xml version="1.0" encoding="UTF-8" standalone="no"?>
<!-- Generator: Adobe Illustrator 19.0.0, SVG Export Plug-In . SVG Version: 6.00 Build 0)  -->

<svg
   xmlns:dc="http://purl.org/dc/elements/1.1/"
   xmlns:cc="http://creativecommons.org/ns#"
   xmlns:rdf="http://www.w3.org/1999/02/22-rdf-syntax-ns#"
   xmlns:svg="http://www.w3.org/2000/svg"
   xmlns="http://www.w3.org/2000/svg"
   xmlns:xlink="http://www.w3.org/1999/xlink"
   xmlns:sodipodi="http://sodipodi.sourceforge.net/DTD/sodipodi-0.dtd"
   xmlns:inkscape="http://www.inkscape.org/namespaces/inkscape"
   version="1.1"
   id="Layer_1"
   x="0px"
   y="0px"
   viewBox="0 0 4360.6 4360.6"
   enable-background="new 0 0 4360.6 4360.6"
   xml:space="preserve"
   inkscape:version="0.48.2 r9819"
   width="100%"
   height="100%"
   sodipodi:docname="ApachePolygene_PoweredBy.svg"><metadata
   id="metadata4991"><rdf:RDF><cc:Work
       rdf:about=""><dc:format>image/svg+xml</dc:format><dc:type
         rdf:resource="http://purl.org/dc/dcmitype/StillImage" /></cc:Work></rdf:RDF></metadata><defs
   id="defs4989"><linearGradient
     inkscape:collect="always"
     xlink:href="#SVGID_8_"
     id="linearGradient9012"
     gradientUnits="userSpaceOnUse"
     gradientTransform="matrix(0.4226,-0.9063,0.9063,0.4226,3653.6313,-3688.6418)"
     x1="-7869.9834"
     y1="1354.1755"
     x2="-4905.1045"
     y2="1354.1755" /><linearGradient
     inkscape:collect="always"
     xlink:href="#SVGID_9_"
     id="linearGradient9014"
     gradientUnits="userSpaceOnUse"
     gradientTransform="matrix(0.4226,-0.9063,0.9063,0.4226,3653.6313,-3688.6418)"
     x1="-7869.9829"
     y1="1343.7327"
     x2="-4905.1045"
     y2="1343.7327" /><linearGradient
     inkscape:collect="always"
     xlink:href="#SVGID_10_"
     id="linearGradient9016"
     gradientUnits="userSpaceOnUse"
     gradientTransform="matrix(0.4226,-0.9063,0.9063,0.4226,3653.6313,-3688.6418)"
     x1="-6204.3574"
     y1="1341.6384"
     x2="-5549.0215"
     y2="1341.6384" /></defs><sodipodi:namedview
   pagecolor="#ffffff"
   bordercolor="#666666"
   borderopacity="1"
   objecttolerance="10"
   gridtolerance="10"
   guidetolerance="10"
   inkscape:pageopacity="0"
   inkscape:pageshadow="2"
   inkscape:window-width="1257"
   inkscape:window-height="816"
   id="namedview4987"
   showgrid="false"
   inkscape:zoom="0.13713709"
   inkscape:cx="2180.3"
   inkscape:cy="2180.3"
   inkscape:window-x="0"
   inkscape:window-y="0"
   inkscape:window-maximized="0"
   inkscape:current-layer="Layer_1" />






















<linearGradient
   id="SVGID_1_"
   gradientUnits="userSpaceOnUse"
   x1="-4960.8643"
   y1="1037.3204"
   x2="-4545.2925"
   y2="1523.2587"
   gradientTransform="matrix(0.4226 -0.9063 0.9063 0.4226 3653.6313 -3688.6418)">
	<stop
   offset="0"
   style="stop-color:#F69923"
   id="stop4852" />
	<stop
   offset="0.3123"
   style="stop-color:#F79A23"
   id="stop4854" />
	<stop
   offset="0.8383"
   style="stop-color:#E97826"
   id="stop4856" />
</linearGradient>









<linearGradient
   id="SVGID_2_"
   gradientUnits="userSpaceOnUse"
   x1="-8036.5088"
   y1="983.6841"
   x2="-5071.6265"
   y2="983.6841"
   gradientTransform="matrix(0.4226 -0.9063 0.9063 0.4226 3653.6313 -3688.6418)">
	<stop
   offset="0.3233"
   style="stop-color:#9E2064"
   id="stop4877" />
	<stop
   offset="0.6302"
   style="stop-color:#C92037"
   id="stop4879" />
	<stop
   offset="0.7514"
   style="stop-color:#CD2335"
   id="stop4881" />
	<stop
   offset="1"
   style="stop-color:#E97826"
   id="stop4883" />
</linearGradient>

<linearGradient
   id="SVGID_3_"
   gradientUnits="userSpaceOnUse"
   x1="-7678.6079"
   y1="1281.0576"
   x2="-5911.8262"
   y2="1281.0576"
   gradientTransform="matrix(0.4226 -0.9063 0.9063 0.4226 3653.6313 -3688.6418)">
	<stop
   offset="0"
   style="stop-color:#282662"
   id="stop4888" />
	<stop
   offset="9.548390e-02"
   style="stop-color:#662E8D"
   id="stop4890" />
	<stop
   offset="0.7882"
   style="stop-color:#9F2064"
   id="stop4892" />
	<stop
   offset="0.9487"
   style="stop-color:#CD2032"
   id="stop4894" />
</linearGradient>

<linearGradient
   id="SVGID_4_"
   gradientUnits="userSpaceOnUse"
   x1="-7869.9854"
   y1="956.0568"
   x2="-4905.1025"
   y2="956.0568"
   gradientTransform="matrix(0.4226 -0.9063 0.9063 0.4226 3653.6313 -3688.6418)">
	<stop
   offset="0.3233"
   style="stop-color:#9E2064"
   id="stop4899" />
	<stop
   offset="0.6302"
   style="stop-color:#C92037"
   id="stop4901" />
	<stop
   offset="0.7514"
   style="stop-color:#CD2335"
   id="stop4903" />
	<stop
   offset="1"
   style="stop-color:#E97826"
   id="stop4905" />
</linearGradient>

<linearGradient
   id="SVGID_5_"
   gradientUnits="userSpaceOnUse"
   x1="-7653.7529"
   y1="996.1702"
   x2="-6095.6182"
   y2="996.1702"
   gradientTransform="matrix(0.4226 -0.9063 0.9063 0.4226 3653.6313 -3688.6418)">
	<stop
   offset="0"
   style="stop-color:#282662"
   id="stop4910" />
	<stop
   offset="9.548390e-02"
   style="stop-color:#662E8D"
   id="stop4912" />
	<stop
   offset="0.7882"
   style="stop-color:#9F2064"
   id="stop4914" />
	<stop
   offset="0.9487"
   style="stop-color:#CD2032"
   id="stop4916" />
</linearGradient>

<linearGradient
   id="SVGID_6_"
   gradientUnits="userSpaceOnUse"
   x1="-7869.9849"
   y1="1262.9109"
   x2="-4905.1035"
   y2="1262.9109"
   gradientTransform="matrix(0.4226 -0.9063 0.9063 0.4226 3653.6313 -3688.6418)">
	<stop
   offset="0.3233"
   style="stop-color:#9E2064"
   id="stop4921" />
	<stop
   offset="0.6302"
   style="stop-color:#C92037"
   id="stop4923" />
	<stop
   offset="0.7514"
   style="stop-color:#CD2335"
   id="stop4925" />
	<stop
   offset="1"
   style="stop-color:#E97826"
   id="stop4927" />
</linearGradient>

<linearGradient
   id="SVGID_7_"
   gradientUnits="userSpaceOnUse"
   x1="-8053.9058"
   y1="1247.6735"
   x2="-5089.0244"
   y2="1247.6735"
   gradientTransform="matrix(0.4226 -0.9063 0.9063 0.4226 3653.6313 -3688.6418)">
	<stop
   offset="0.3233"
   style="stop-color:#9E2064"
   id="stop4932" />
	<stop
   offset="0.6302"
   style="stop-color:#C92037"
   id="stop4934" />
	<stop
   offset="0.7514"
   style="stop-color:#CD2335"
   id="stop4936" />
	<stop
   offset="1"
   style="stop-color:#E97826"
   id="stop4938" />
</linearGradient>



<linearGradient
   id="SVGID_8_"
   gradientUnits="userSpaceOnUse"
   x1="-7869.9834"
   y1="1354.1755"
   x2="-4905.1045"
   y2="1354.1755"
   gradientTransform="matrix(0.4226 -0.9063 0.9063 0.4226 3653.6313 -3688.6418)">
	<stop
   offset="0.3233"
   style="stop-color:#9E2064"
   id="stop4947" />
	<stop
   offset="0.6302"
   style="stop-color:#C92037"
   id="stop4949" />
	<stop
   offset="0.7514"
   style="stop-color:#CD2335"
   id="stop4951" />
	<stop
   offset="1"
   style="stop-color:#E97826"
   id="stop4953" />
</linearGradient>



<linearGradient
   id="SVGID_9_"
   gradientUnits="userSpaceOnUse"
   x1="-7869.9829"
   y1="1343.7327"
   x2="-4905.1045"
   y2="1343.7327"
   gradientTransform="matrix(0.4226 -0.9063 0.9063 0.4226 3653.6313 -3688.6418)">
	<stop
   offset="0.3233"
   style="stop-color:#9E2064"
   id="stop4962" />
	<stop
   offset="0.6302"
   style="stop-color:#C92037"
   id="stop4964" />
	<stop
   offset="0.7514"
   style="stop-color:#CD2335"
   id="stop4966" />
	<stop
   offset="1"
   style="stop-color:#E97826"
   id="stop4968" />
</linearGradient>



<linearGradient
   id="SVGID_10_"
   gradientUnits="userSpaceOnUse"
   x1="-6204.3574"
   y1="1341.6384"
   x2="-5549.0215"
   y2="1341.6384"
   gradientTransform="matrix(0.4226 -0.9063 0.9063 0.4226 3653.6313 -3688.6418)">
	<stop
   offset="0.3233"
   style="stop-color:#9E2064"
   id="stop4977" />
	<stop
   offset="0.6302"
   style="stop-color:#C92037"
   id="stop4979" />
	<stop
   offset="0.7514"
   style="stop-color:#CD2335"
   id="stop4981" />
	<stop
   offset="1"
   style="stop-color:#E97826"
   id="stop4983" />
</linearGradient>

<g
   id="g9041"><path
     style="fill:#0b75bc;fill-opacity:1"
     inkscape:connector-curvature="0"
     id="path4845"
     d="m 2956.2531,2826.6172 h -31.6 v 88.8 h -14.6 v -88.8 h -31.4 v -13.4 h 77.6 v 13.4 z m 121.7,88.8 h -13.4 v -81 l -34.8,70.3 h -9.2 l -34.8,-70.3 v 81 h -13.4 v -102.2 h 17.5 l 35.3,71.3 35.1,-71.3 h 17.8 v 102.2 z" /><g
     transform="translate(-9.7656248e-5,0)"
     id="g9018"><rect
       style="fill:none"
       x="0"
       y="0"
       width="4360.6001"
       height="4360.6001"
       id="rect4807" /><path
       style="fill:#555759"
       inkscape:connector-curvature="0"
       d="M 2180.3,0 C 976.2,0 0,976.2 0,2180.3 0,3384.4 976.2,4360.6 2180.3,4360.6 3384.4,4360.6 4360.6,3384.4 4360.6,2180.3 4360.6,976.2 3384.5,0 2180.3,0 z m 18.3,3650.4 c -217.5,0 -423.8,-47.6 -609.5,-132.4 -55.6246,-23.1028 2.7036,2.1204 -36.1,-16.9 C 1064.7,3262 728.4,2760.4 728.4,2180.2 c 0,-811.9 658.2,-1470.1 1470.1,-1470.1 811.9,0 1470.1,658.2 1470.1,1470.1 0,811.9 -658.1,1470.2 -1470,1470.2 z"
       id="path4809"
       sodipodi:nodetypes="ssssssccssss" /><path
       style="fill:#ffffff"
       inkscape:connector-curvature="0"
       d="m 197.4,2084.7 15.4,-135.3 c 2.7,-24.1 6.3,-41.9 9.7,-54.2 5,-17.2 12.2,-31.6 21.6,-42.2 9.9,-11.1 22.5,-19.3 38.4,-25.1 15.3,-5.3 32.3,-7.5 49.8,-5.5 30.6,3.5 55.5,16.5 74.3,38.4 18.9,21.4 25.4,57.7 19.6,108.8 l -10.4,91.7 145.8,16.6 -5.4,47.6 -358.8,-40.8 z m 186.8,-120.9 c 3.5,-30.6 0,-53.3 -10.1,-67.1 -9.5,-14.3 -25.3,-22.7 -45.9,-25 -15,-1.7 -28,0.8 -39.9,7.1 -11.4,6.3 -19.5,15.5 -24.5,27.7 -2.9,7.8 -5.6,22.2 -8,43.8 l -10.4,91.7 128.3,14.6 10.5,-92.8 z"
       id="path4811" /><path
       style="fill:#ffffff"
       inkscape:connector-curvature="0"
       d="m 304.9,1681.4 c -21.8,-41.3 -25,-86 -8.8,-134.3 10.5,-31.6 27.8,-57.7 51.6,-77.9 23.3,-20.4 50.7,-32.5 82.4,-36.7 31.3,-4.5 64.1,-0.9 98.5,10.6 34.9,11.7 63.6,29.2 86.2,52.2 22.6,23 36.9,50.1 42.2,80.6 5.4,30 3.3,60.1 -6.6,89.8 -10.9,32.5 -28.1,58.6 -52.4,78.7 -23.8,20.2 -51.7,32.2 -82.9,36.6 -31.1,4 -62,1.1 -92.2,-9 -56.4,-18.9 -95.7,-49.1 -118,-90.6 m 243.4,43.1 c 30.8,-14.2 52,-37.9 63.2,-71.4 11.4,-33.9 8.8,-66.1 -7.7,-96.1 -16.5,-30 -46.8,-52.3 -90.8,-67 -28.2,-9.4 -54.2,-12.8 -77.8,-10.6 -23.8,2.7 -44.7,11.1 -62.2,25.5 -17.5,14.3 -30,32.5 -37.5,55 -10.7,32 -9,63.5 5.3,93.8 14.2,30.8 47.2,54.6 98.8,71.8 41.1,13.6 77.3,13.5 108.7,-1"
       id="path4813" /><path
       style="fill:#ffffff"
       inkscape:connector-curvature="0"
       d="m 390.9,1298.2 26.4,-41.1 228.7,81.5 c 24.5,8.5 47.6,17.3 70.8,26.9 -27.8,-28.6 -43.7,-44.9 -47.3,-49.5 L 501.2,1126.4 532.3,1078 714,1132.9 c 45,13.9 86.2,29 122.7,45.9 -16.4,-16.5 -35.1,-35.8 -56.4,-57.8 l -164.6,-172.9 26.2,-40.7 250.1,278.7 -24.8,38.6 -272.4,-84.4 c -22.8,-7.4 -36.8,-11.7 -41.6,-13.6 11.4,12.1 21.4,22.7 29.9,31.8 l 189.8,213 -26.4,41.2 -355.6,-114.5 z"
       id="path4815" /><polygon
       style="fill:#ffffff"
       points="905.4,652 935.2,682.8 782,831.2 858.8,910.5 1002.2,771.6 1031.7,802.1 888.2,941 973.8,1029.4 1132.9,875.4 1162.3,905.8 968.9,1093.1 717.7,833.7 "
       id="polygon4817" /><path
       style="fill:#ffffff"
       inkscape:connector-curvature="0"
       d="m 1003.2,573.4 134.6,-86.2 c 27.2,-17.4 49.5,-27.5 67.2,-31.6 17.5,-3.5 34.8,-0.8 52.3,7.8 17.2,8.2 31.2,20.7 41.8,37.3 13.9,21.6 18.4,44.5 14.3,68.1 -4.5,23.9 -20.2,47.1 -47,69.7 13.9,-1.7 25.2,-1.8 34,-0.2 18.7,3 38.9,9.2 59.4,18.8 l 105.7,49.1 -50.5,32.4 -80.4,-37.7 c -23.6,-10.6 -42.3,-18.4 -56.2,-23.3 -13.6,-4.5 -24.8,-6.9 -33.2,-6.9 -8.7,-0.4 -16.2,0.8 -23.4,3.6 -5.5,1.7 -13,5.9 -23.6,12.7 l -46.7,29.9 86.5,135 -39.9,25.6 -194.9,-304.1 z m 212.5,53.1 c 18.3,-11.7 31.6,-22.6 39.8,-33.3 7.7,-10.4 11.3,-21.6 11.6,-33.2 0.1,-12 -3.1,-22.6 -9.6,-32.7 -9,-14 -21.7,-22.7 -38.3,-25.2 -16.2,-2.8 -35.7,3.1 -58.2,17.5 l -96.4,61.8 64.5,100.6 86.6,-55.5 z"
       id="path4819" /><polygon
       style="fill:#ffffff"
       points="1603.2,268.1 1618.6,308 1419.7,385 1459.6,488 1645.8,415.9 1661,455.4 1474.8,527.5 1519.2,642.2 1725.6,562.4 1740.9,601.8 1489.8,699 1359.6,362.3 "
       id="polygon4821" /><path
       style="fill:#ffffff"
       inkscape:connector-curvature="0"
       d="M 1723.2,234 1846,213.1 c 27.3,-4.7 49.1,-6.3 64,-5.8 21.2,1.5 40.1,7 56.6,16.9 21.6,12.7 38.9,30.2 52.6,53.4 13.7,23.3 22.9,50.3 28.3,82.1 4.7,27.3 5.7,51.7 2.8,73.7 -2.9,22 -8,40.2 -15.5,55.8 -7.6,15.1 -16.7,27.9 -26.8,37.8 -10.6,10 -23.5,18.3 -39.7,25.2 -15.7,6.8 -34.3,12 -56.1,15.7 L 1784,589.7 1723.2,234 z M 1900,527.1 c 23.4,-4 41.3,-9.6 54,-16.4 12.7,-6.3 22.1,-14.5 28.7,-23.8 9.1,-12.8 15.5,-29.2 18.2,-49.2 3.2,-20 2.3,-43.4 -2.2,-70.2 -6.3,-37.3 -17.2,-65.1 -33.1,-82.8 -15.3,-17.9 -32.5,-28.7 -51.1,-32.7 -13.8,-2.8 -34,-1.4 -62.3,3.5 l -74.6,12.7 46.3,271.9 76.1,-13 z"
       id="path4823" /><path
       style="fill:#ffffff"
       inkscape:connector-curvature="0"
       d="m 2287.4,178.5 134.9,14.4 c 27.1,2.9 48.8,8.8 64.5,18.1 15.8,8.8 27.6,21.7 35.5,37.8 7.9,16.1 10.8,32.1 9,48.6 -1.6,15.5 -7.2,29.6 -17.2,42.3 -9.5,12.7 -23.2,22.4 -41.1,28.6 20.9,8.8 36.8,21.2 46.7,38 9.9,16.8 13.9,35.5 11.7,56 -1.8,17 -7,32.2 -15.6,46 -9.1,13.7 -18.8,23.9 -30.2,30.7 -11.3,6.4 -25,11 -41,13.4 -16.5,2.3 -35.7,2.2 -58.8,-0.2 l -136.8,-14.7 38.4,-359 z M 2390.3,510 c 15.5,1.7 26.2,1.8 32.8,1.5 10.7,-0.9 20.6,-2.9 28.1,-6.6 8.1,-4.2 14.8,-10.1 20.2,-18.1 6,-8.5 9.6,-18.2 10.8,-29.8 1.4,-13.1 -0.9,-24.9 -6.8,-35.7 -5.9,-10.8 -14.7,-18.8 -26.3,-24.1 -11.6,-5.3 -28.9,-9.2 -52,-11.6 l -82.7,-8.9 -13.3,123.8 89.2,9.5 z m 6.3,-167.2 c 21,2.2 36.3,2.4 45.5,0.8 12.4,-2.7 22.1,-7.3 29.5,-15.1 6.9,-7.9 11,-17.6 12.3,-30.1 1.3,-12 -0.6,-22.9 -5.1,-32.5 -5,-9.7 -12.4,-17 -22.6,-21.2 -10.2,-4.6 -28.6,-8.1 -54.1,-10.8 l -71.7,-7.7 -11.6,108.3 77.8,8.3 z"
       id="path4825" /><path
       style="fill:#ffffff"
       inkscape:connector-curvature="0"
       d="m 2706.1,460.7 -71.5,-240 55.4,17.1 35.8,125.1 c 7.1,23.3 12.5,46.6 17.2,69.2 16.1,-14.5 34.5,-31.5 56.3,-49.1 l 98.4,-81 53,16.4 -198.8,156.6 -45.1,146 -45.8,-14.1 45.1,-146.2 z"
       id="path4827" /><path
       style="fill:#ffffff"
       inkscape:connector-curvature="0"
       d="m 1894.8,4229.1 217.6,-469.9 49.9,2.2 175.2,487 -64.7,-2.8 -50.5,-142.6 -200.8,-8.8 -62.1,137.7 -64.6,-2.8 z m 239.5,-398.7 -98.6,217.1 175.2,7.6 -76.6,-224.7 z"
       id="path4829" /><path
       style="fill:#ffffff"
       inkscape:connector-curvature="0"
       d="m 2467.7,4229.4 -96.5,-469.1 195.6,-40.2 c 20.7,-4.3 40.6,-3.9 59.8,1.1 19.2,5 36.5,13.4 52,25.1 15.5,11.7 28.6,25.8 39.3,42.2 10.7,16.4 18,33.8 21.8,52.3 4,19.4 4.5,38.8 1.6,58.2 -2.9,19.4 -9,37.4 -18.2,54 -9.2,16.6 -21.4,30.8 -36.7,42.6 -15.2,11.9 -33.2,19.9 -53.9,24.2 l -140.1,28.8 34.7,168.5 -59.4,12.3 z m 13.9,-233.5 136.7,-28.2 c 12.3,-2.5 22.9,-7.3 31.8,-14.5 8.9,-7.1 15.9,-15.9 21.1,-26.4 5.2,-10.5 8.5,-22.1 10.1,-34.8 1.5,-12.7 0.9,-25.7 -1.8,-38.9 -2.8,-13.7 -7.8,-25.9 -14.8,-36.9 -7.1,-11 -15.4,-20 -24.9,-27.3 -9.5,-7.2 -20,-12.2 -31.3,-14.9 -11.4,-2.7 -22.8,-2.9 -34.2,-0.5 l -132.8,27.3 40.1,195.1 z"
       id="path4831" /><path
       style="fill:#ffffff"
       inkscape:connector-curvature="0"
       d="m 2857.3,4146.2 -20.7,-517.4 45.4,-20.8 378.1,353.4 -58.9,27 -110,-103.9 -182.7,83.8 7.6,150.9 -58.8,27 z m 31.2,-464 11.3,238.2 159.4,-73.1 -170.7,-165.1 z"
       id="path4833" /><path
       style="fill:#ffffff"
       inkscape:connector-curvature="0"
       d="m 3158.7,3736.2 c -18.9,-23.1 -33.6,-49.4 -44.2,-78.9 -10.6,-29.5 -15.5,-59.8 -14.7,-90.8 0.8,-31 8,-61.4 21.6,-91.1 13.6,-29.7 34.8,-56.4 63.6,-80 34.2,-28 70,-44.2 107.2,-48.8 37.2,-4.5 71.9,0.8 104.1,15.9 l -18.1,56.3 c -15.8,-7.5 -31.1,-12.2 -46,-13.8 -14.9,-1.7 -29.2,-1.1 -42.8,1.7 -13.7,2.7 -26.4,7.2 -38.3,13.3 -11.9,6.1 -22.7,13.1 -32.4,21.1 -21.3,17.4 -36.5,37.2 -45.7,59.4 -9.2,22.2 -13.6,45.1 -13.1,68.4 0.5,23.4 5.2,46.3 14.2,68.7 9,22.4 20.9,42.6 35.6,60.7 16.5,20.2 35.5,36.7 57.1,49.4 21.5,12.8 44,21.3 67.4,25.6 23.4,4.3 46.6,4 69.6,-0.9 23,-5 44,-15.2 63.2,-30.9 10.1,-8.2 19.4,-18 28,-29.2 8.6,-11.2 15.4,-23.6 20.6,-37.1 5.2,-13.6 8.5,-28 10.1,-43.4 1.5,-15.4 0.2,-31.2 -4.2,-47.6 l 58.7,-11 c 5.6,19.4 7.5,39.2 5.5,59.1 -2,20 -6.9,39.4 -14.6,58.3 -7.7,18.9 -17.7,36.7 -29.9,53.3 -12.3,16.6 -25.8,31 -40.6,43.1 -26.3,21.5 -55.2,35.5 -86.6,41.9 -31.4,6.5 -62.7,6.9 -93.9,1.5 -31.2,-5.4 -60.9,-16.4 -89,-32.8 -28.3,-16.4 -52.4,-36.9 -72.4,-61.4"
       id="path4835" /><polygon
       style="fill:#ffffff"
       points="3991.9,3216.2 3956.8,3265.7 3779.1,3139.7 3626.5,3354.8 3804.2,3480.8 3769.1,3530.3 3378.5,3253.2 3413.6,3203.7 3582.5,3323.5 3735.1,3108.4 3566.2,2988.6 3601.3,2939.1 "
       id="polygon4837" /><polygon
       style="fill:#ffffff"
       points="4188.2,2724 4073.6,3028.3 3625.5,2859.4 3737.9,2560.9 3788.4,2579.9 3697.3,2821.6 3842.5,2876.3 3921.7,2666.1 3969.1,2684 3889.9,2894.2 4044.5,2952.4 4137.7,2705 "
       id="polygon4839" /><path
       style="fill:#ffffff"
       inkscape:connector-curvature="0"
       d="m 3939.3,1325.4 c 0.8,72.4 -57.2,131.8 -129.6,132.6 -72.4,0.8 -131.8,-57.2 -132.6,-129.6 -0.8,-72.4 57.2,-131.8 129.6,-132.6 72.4,-0.9 131.8,57.2 132.6,129.6"
       id="path4841" /><path
       style="fill:#ffffff"
       inkscape:connector-curvature="0"
       d="m 951.6,3378.5 c 0.8,72.4 -57.2,131.8 -129.6,132.6 -72.4,0.8 -131.8,-57.2 -132.6,-129.6 -0.8,-72.4 57.2,-131.8 129.6,-132.6 72.4,-0.9 131.8,57.1 132.6,129.6"
       id="path4843" /><rect
       style="fill:none"
       x="0"
       y="0"
       width="4360.6001"
       height="4360.6001"
       id="rect4847" /><rect
       style="fill:none"
       x="0"
       y="0"
       width="4360.6001"
       height="4360.6001"
       id="rect4849" /></g><g
     transform="matrix(1.1227262,0,0,1.1227262,-113.53403,-238.65805)"
     id="g8985"><path
       style="fill:none"
       inkscape:connector-curvature="0"
       d="m 2498,1915.6 c 0.6,-0.1 1.2,-0.2 1.8,-0.4 l -12.1,1.3 c -0.7,0.3 -1.4,0.7 -2.1,1 4.1,-0.6 8.3,-1.2 12.4,-1.9 z"
       id="path4860" /><path
       style="fill:none"
       inkscape:connector-curvature="0"
       d="m 2412.1,2199.9 c -6.9,1.5 -13.9,2.7 -21,3.8 7.1,-1 14.2,-2.3 21,-3.8 z"
       id="path4862" /><path
       style="fill:none"
       inkscape:connector-curvature="0"
       d="m 2385.8,2204.5 0,0 c 0.1,0 0.1,0 0.2,-0.1 -0.1,0.1 -0.2,0.1 -0.2,0.1 z"
       id="path4866" /><path
       style="fill:#be202e"
       inkscape:connector-curvature="0"
       d="m 2357.9,2343.2 c -10.7,1.9 -21.8,3.9 -33.1,5.8 -0.1,0 -0.1,0.1 -0.2,0.1 5.7,-0.8 11.4,-1.7 16.9,-2.7 5.5,-1 11,-2.1 16.4,-3.2 z"
       id="path4868" /><path
       style="opacity:0.35;fill:#be202e"
       inkscape:connector-curvature="0"
       d="m 2357.9,2343.2 c -10.7,1.9 -21.8,3.9 -33.1,5.8 -0.1,0 -0.1,0.1 -0.2,0.1 5.7,-0.8 11.4,-1.7 16.9,-2.7 5.5,-1 11,-2.1 16.4,-3.2 z"
       id="path4870" /><path
       style="fill:#be202e"
       inkscape:connector-curvature="0"
       d="m 2386,2204.4 c 0,0 0,0 0,0 -0.1,0.1 -0.2,0.1 -0.2,0.1 1.8,-0.2 3.5,-0.5 5.3,-0.8 7.1,-1 14.2,-2.3 21,-3.8 -8.5,1.5 -17.2,3 -26.1,4.5 l 0,0 0,0 z"
       id="path4872" /><path
       style="opacity:0.35;fill:#be202e"
       inkscape:connector-curvature="0"
       d="m 2386,2204.4 c 0,0 0,0 0,0 -0.1,0.1 -0.2,0.1 -0.2,0.1 1.8,-0.2 3.5,-0.5 5.3,-0.8 7.1,-1 14.2,-2.3 21,-3.8 -8.5,1.5 -17.2,3 -26.1,4.5 l 0,0 0,0 z"
       id="path4874" /><path
       style="fill:#be202e"
       inkscape:connector-curvature="0"
       d="m 2341.5,2346.3 c -5.6,1 -11.2,1.9 -16.9,2.7 l 0,0 c 5.7,-0.8 11.3,-1.7 16.9,-2.7 z"
       id="path4942" /><path
       style="opacity:0.35;fill:#be202e"
       inkscape:connector-curvature="0"
       d="m 2341.5,2346.3 c -5.6,1 -11.2,1.9 -16.9,2.7 l 0,0 c 5.7,-0.8 11.3,-1.7 16.9,-2.7 z"
       id="path4944" /><path
       inkscape:connector-curvature="0"
       style="fill:url(#linearGradient9012)"
       d="m 2341.5,2346.3 c -5.6,1 -11.2,1.9 -16.9,2.7 l 0,0 c 5.7,-0.8 11.3,-1.7 16.9,-2.7 z"
       id="path4955" /><path
       style="fill:#be202e"
       inkscape:connector-curvature="0"
       d="m 2385.8,2204.5 c 1.8,-0.2 3.5,-0.5 5.3,-0.8 -1.8,0.3 -3.5,0.6 -5.3,0.8 l 0,0 z"
       id="path4957" /><path
       style="opacity:0.35;fill:#be202e"
       inkscape:connector-curvature="0"
       d="m 2385.8,2204.5 c 1.8,-0.2 3.5,-0.5 5.3,-0.8 -1.8,0.3 -3.5,0.6 -5.3,0.8 l 0,0 z"
       id="path4959" /><path
       inkscape:connector-curvature="0"
       style="fill:url(#linearGradient9014)"
       d="m 2385.8,2204.5 c 1.8,-0.2 3.5,-0.5 5.3,-0.8 -1.8,0.3 -3.5,0.6 -5.3,0.8 l 0,0 z"
       id="path4970" /><path
       style="fill:#be202e"
       inkscape:connector-curvature="0"
       d="m 2385.9,2204.4 c 0.1,0 0.1,0 0,0 l 0.1,0 0,0 0,0 c 0,0 0,0 -0.1,0 z"
       id="path4972" /><path
       style="opacity:0.35;fill:#be202e"
       inkscape:connector-curvature="0"
       d="m 2385.9,2204.4 c 0.1,0 0.1,0 0,0 l 0.1,0 0,0 0,0 c 0,0 0,0 -0.1,0 z"
       id="path4974" /><path
       inkscape:connector-curvature="0"
       style="fill:url(#linearGradient9016)"
       d="m 2385.9,2204.4 c 0.1,0 0.1,0 0,0 l 0.1,0 0,0 0,0 c 0,0 0,0 -0.1,0 z"
       id="path4985" /><polygon
       style="fill:#0b75bc"
       points="220.514,117.695 224.049,121.229 48.45,320.871 39.258,311.678 "
       id="polygon8013"
       transform="matrix(5.6305116,0,0,5.6305116,1412.3377,908.6354)" /><polygon
       style="fill:#0b75bc"
       points="213.441,110.624 216.977,114.159 22.994,295.414 13.802,286.223 "
       id="polygon8015"
       transform="matrix(5.6305116,0,0,5.6305116,1412.3377,908.6354)" /><g
       id="g8017"
       transform="matrix(5.6305116,0,0,5.6305116,1412.3377,908.6354)">
	<g
   id="g8019">
		<path
   style="fill:#e92f30"
   inkscape:connector-curvature="0"
   d="M 87.018,185.953 C 98.951,113.368 21.445,121.94 82.418,0 -21.358,128.558 71.05,123.53 87.018,185.953 z"
   id="path8021" />
		<path
   style="fill:#e92f30"
   inkscape:connector-curvature="0"
   d="m 104.678,197.569 c 26.959,-87.325 -30.271,-69.011 -4.175,-146.75 1.374,89.276 77.677,65.531 4.175,146.75 z"
   id="path8023" />
	</g>
	<path
   style="fill:#0b75bc"
   inkscape:connector-curvature="0"
   d="m 194.313,165.634 c 2.688,4.842 4.531,10.285 4.531,16.13 0,24.779 -27.475,45.817 -65.641,53.345 L 94.81,278.76 c 2.409,0.199 4.867,0.306 7.38,0.306 41.194,0 68.22,-27.649 84.071,-52.108 11.422,-10.446 18.118,-23.121 18.118,-36.788 0,-9.295 -3.101,-18.13 -8.673,-26.12 l -1.393,1.584 z"
   id="path8025" />
	<path
   style="fill:#0b75bc"
   inkscape:connector-curvature="0"
   d="m 5.538,181.765 c 0,-21.282 26.161,-38.446 26.161,-38.446 C 12.171,155.104 0,171.736 0,190.169 c 0,13.667 6.697,26.342 18.119,36.788 5.817,8.976 13.146,18.376 22.12,26.687 L 63.333,233.332 C 29.303,224.616 5.538,204.81 5.538,181.765 z"
   id="path8027" />
</g><path
       style="fill:#0b75bc"
       inkscape:connector-curvature="0"
       d="m 1946.0483,2248.1792 -187.1357,174.8611 c 10.1067,5.3715 20.4894,10.4052 31.0973,15.1348 l 176.8994,-189.3259 c -6.9875,-0.1577 -13.9468,-0.3604 -20.861,-0.67 z"
       id="path8029" /></g><text
     sodipodi:linespacing="125%"
     id="text8956"
     y="3390.3511"
     x="1471.8768"
     style="font-size:68.89128876px;font-style:normal;font-variant:normal;font-weight:bold;font-stretch:normal;text-align:start;line-height:125%;letter-spacing:0px;word-spacing:0px;writing-mode:lr-tb;text-anchor:start;fill:#0b75bc;fill-opacity:1;stroke:none;font-family:Verdana;-inkscape-font-specification:Sans Bold"
     xml:space="preserve"><tspan
       style="font-size:688.91290283px;font-style:normal;font-variant:normal;font-weight:600;font-stretch:normal;fill:#0b75bc;fill-opacity:1;font-family:Apple SD Gothic Neo;-inkscape-font-specification:Apple SD Gothic Neo Semi-Bold"
       y="3390.3511"
       x="1471.8768"
       id="tspan8958"
       sodipodi:role="line">polygene</tspan></text>
</g></svg>